# xmcd CD database file
#
# Track frame offsets:
#	150
#	4300
#	26016
#	45834
#	86064
#	137618
#	170951
#	231962
#	259490
#
# Disc length: 4179 seconds
#
# Revision: 1
# Processed by: cddbd v1.5.2PL0 Copyright (c) Steve Scherf et al.
# Submitted via: CDex 1.75
#
DISCID=77105109
DTITLE=Andrew Holecek - Dream Yoga d4 - Meditation Instruction
DYEAR=2013
DGENRE=New Age
TTITLE0=Intro
TTITLE1=The universal process
TTITLE2=The three phases of meditation
TTITLE3=Taking your posture
TTITLE4=Experiencing the breath and mind
TTITLE5=Recognizing non-lucidity
TTITLE6=Lying down practice
TTITLE7=Insider and outsider
TTITLE8=Lotus descent visualization
EXTD=YEAR: 2013
EXTT0=
EXTT1=
EXTT2=
EXTT3=
EXTT4=
EXTT5=
EXTT6=
EXTT7=
EXTT8=
PLAYORDER=
